<svg width="2154" height="1731" viewBox="0 0 2154 1731" fill="none" xmlns="http://www.w3.org/2000/svg">
<rect y="94" width="2154" height="1542" fill="#24292E"/>
<path d="M21 813V641H76.25V813H21ZM280.92 638C306.42 638 326.587 644.417 341.42 657.25C356.253 669.917 363.67 688.083 363.67 711.75H310.92C310.92 701.75 308.253 693.833 302.92 688C297.753 682.167 290.337 679.25 280.67 679.25C269.503 679.25 261.253 682.75 255.92 689.75C250.753 696.75 248.17 706.5 248.17 719V735C248.17 747.333 250.753 757.083 255.92 764.25C261.253 771.25 269.337 774.75 280.17 774.75C290.837 774.75 298.92 772 304.42 766.5C309.92 761 312.67 753.25 312.67 743.25H363.67C363.67 766.75 356.42 784.75 341.92 797.25C327.587 809.75 307.253 816 280.92 816C251.587 816 229.337 808.5 214.17 793.5C199.17 778.5 191.67 756.333 191.67 727C191.67 697.667 199.17 675.5 214.17 660.5C229.337 645.5 251.587 638 280.92 638ZM479 638C508.667 638 531.583 645.583 547.75 660.75C563.917 675.917 572 698 572 727C572 756 563.917 778.083 547.75 793.25C531.583 808.417 508.667 816 479 816C449.333 816 426.417 808.5 410.25 793.5C394.25 778.333 386.25 756.167 386.25 727C386.25 697.833 394.25 675.75 410.25 660.75C426.417 645.583 449.333 638 479 638ZM479 679.25C467.167 679.25 458.167 682.833 452 690C445.833 697.167 442.75 706.833 442.75 719V735C442.75 747.167 445.833 756.833 452 764C458.167 771.167 467.167 774.75 479 774.75C490.833 774.75 499.833 771.167 506 764C512.333 756.833 515.5 747.167 515.5 735V719C515.5 706.833 512.333 697.167 506 690C499.833 682.833 490.833 679.25 479 679.25ZM676.252 641C736.419 641 766.502 669.667 766.502 727C766.502 784.333 736.419 813 676.252 813H601.752V641H676.252ZM657.002 771.75H675.252C698.419 771.75 710.002 759.333 710.002 734.5V719.5C710.002 694.667 698.419 682.25 675.252 682.25H657.002V771.75ZM796.332 641H945.082V682.25H851.582V706H931.582V745.5H851.582V771.75H946.832V813H796.332V641ZM147.75 1085L125.5 980.25H124.5L102.25 1085H41.5L1.25 913H58.75L78.5 1010.5H79.5L99 913H153.5L174.25 1010.5H175.25L193.75 913H248.75L208.5 1085H147.75ZM268.5 913H417.25V954.25H323.75V978H403.75V1017.5H323.75V1043.75H419V1085H268.5V913ZM563.42 913C572.087 913 580.003 914.833 587.17 918.5C594.503 922 600.253 927 604.42 933.5C608.753 940 610.92 947.25 610.92 955.25C610.92 976.417 601.337 989.75 582.17 995.25V996.25C604.003 1001.25 614.92 1015.58 614.92 1039.25C614.92 1048.25 612.67 1056.25 608.17 1063.25C603.837 1070.08 597.837 1075.42 590.17 1079.25C582.503 1083.08 574.087 1085 564.92 1085H448.92V913H563.42ZM504.17 980H542.17C545.837 980 548.837 978.75 551.17 976.25C553.67 973.583 554.92 970.333 554.92 966.5V964C554.92 960.333 553.67 957.25 551.17 954.75C548.67 952.083 545.67 950.75 542.17 950.75H504.17V980ZM504.17 1045H546.17C549.837 1045 552.837 1043.75 555.17 1041.25C557.67 1038.58 558.92 1035.33 558.92 1031.5V1029C558.92 1025.17 557.67 1022 555.17 1019.5C552.837 1016.83 549.837 1015.5 546.17 1015.5H504.17V1045ZM715.75 910C737.75 910 755.833 914.5 770 923.5C784.167 932.333 791.417 945.5 791.75 963V966H740V965C740 960 738.167 955.833 734.5 952.5C730.833 949.167 725.25 947.5 717.75 947.5C710.417 947.5 704.75 948.583 700.75 950.75C696.917 952.917 695 955.583 695 958.75C695 963.25 697.667 966.583 703 968.75C708.333 970.917 716.917 973.167 728.75 975.5C742.583 978.333 753.917 981.333 762.75 984.5C771.75 987.5 779.583 992.5 786.25 999.5C792.917 1006.5 796.333 1016 796.5 1028C796.5 1048.33 789.583 1063.42 775.75 1073.25C762.083 1083.08 743.75 1088 720.75 1088C693.917 1088 673 1083.5 658 1074.5C643.167 1065.5 635.75 1049.58 635.75 1026.75H688C688 1035.42 690.25 1041.25 694.75 1044.25C699.25 1047.08 706.25 1048.5 715.75 1048.5C722.75 1048.5 728.5 1047.75 733 1046.25C737.667 1044.75 740 1041.67 740 1037C740 1032.83 737.417 1029.75 732.25 1027.75C727.25 1025.58 719 1023.33 707.5 1021C693.5 1018 681.917 1014.92 672.75 1011.75C663.583 1008.42 655.583 1003 648.75 995.5C641.917 988 638.5 977.833 638.5 965C638.5 946.167 645.75 932.333 660.25 923.5C674.917 914.5 693.417 910 715.75 910ZM826.42 1085V913H881.67V1085H826.42ZM1020.09 957V1085H964.838V957H908.338V913H1076.34V957H1020.09ZM1101.51 913H1250.26V954.25H1156.76V978H1236.76V1017.5H1156.76V1043.75H1252.01V1085H1101.51V913ZM1354.18 910C1376.18 910 1394.26 914.5 1408.43 923.5C1422.59 932.333 1429.84 945.5 1430.18 963V966H1378.43V965C1378.43 960 1376.59 955.833 1372.93 952.5C1369.26 949.167 1363.68 947.5 1356.18 947.5C1348.84 947.5 1343.18 948.583 1339.18 950.75C1335.34 952.917 1333.43 955.583 1333.43 958.75C1333.43 963.25 1336.09 966.583 1341.43 968.75C1346.76 970.917 1355.34 973.167 1367.18 975.5C1381.01 978.333 1392.34 981.333 1401.18 984.5C1410.18 987.5 1418.01 992.5 1424.68 999.5C1431.34 1006.5 1434.76 1016 1434.93 1028C1434.93 1048.33 1428.01 1063.42 1414.18 1073.25C1400.51 1083.08 1382.18 1088 1359.18 1088C1332.34 1088 1311.43 1083.5 1296.43 1074.5C1281.59 1065.5 1274.18 1049.58 1274.18 1026.75H1326.43C1326.43 1035.42 1328.68 1041.25 1333.18 1044.25C1337.68 1047.08 1344.68 1048.5 1354.18 1048.5C1361.18 1048.5 1366.93 1047.75 1371.43 1046.25C1376.09 1044.75 1378.43 1041.67 1378.43 1037C1378.43 1032.83 1375.84 1029.75 1370.68 1027.75C1365.68 1025.58 1357.43 1023.33 1345.93 1021C1331.93 1018 1320.34 1014.92 1311.18 1011.75C1302.01 1008.42 1294.01 1003 1287.18 995.5C1280.34 988 1276.93 977.833 1276.93 965C1276.93 946.167 1284.18 932.333 1298.68 923.5C1313.34 914.5 1331.84 910 1354.18 910Z" fill="#2B2F33"/>
</svg>
