<svg width="25" height="25" viewBox="0 0 25 25" fill="none" xmlns="http://www.w3.org/2000/svg">
<path d="M19.4445 5.55554H9.72226C9.35391 5.55554 9.00064 5.70187 8.74017 5.96234C8.4797 6.22281 8.33337 6.57607 8.33337 6.94443V8.33332H9.72226V6.94443H19.4445V13.8889H18.0556V15.2778H19.4445C19.8128 15.2778 20.1661 15.1314 20.4266 14.871C20.687 14.6105 20.8334 14.2572 20.8334 13.8889V6.94443C20.8334 6.57607 20.687 6.22281 20.4266 5.96234C20.1661 5.70187 19.8128 5.55554 19.4445 5.55554Z" fill="#939293"/>
<path d="M15.2777 9.72223H5.55551C5.18716 9.72223 4.83389 9.86856 4.57342 10.129C4.31295 10.3895 4.16663 10.7428 4.16663 11.1111V18.0556C4.16663 18.4239 4.31295 18.7772 4.57342 19.0377C4.83389 19.2981 5.18716 19.4444 5.55551 19.4444H15.2777C15.6461 19.4444 15.9994 19.2981 16.2598 19.0377C16.5203 18.7772 16.6666 18.4239 16.6666 18.0556V11.1111C16.6666 10.7428 16.5203 10.3895 16.2598 10.129C15.9994 9.86856 15.6461 9.72223 15.2777 9.72223ZM5.55551 18.0556V11.1111H15.2777V18.0556H5.55551Z" fill="#939293"/>
</svg>
