<svg width="26" height="25" viewBox="0 0 26 25" fill="none" xmlns="http://www.w3.org/2000/svg">
<path d="M24.2274 2.64497L19.056 0.155011C18.7639 0.0143957 18.4354 -0.031964 18.1158 0.0223469C17.7962 0.0766578 17.5014 0.228954 17.2722 0.45816L0.342704 15.8939C-0.112611 16.3091 -0.11202 17.026 0.343885 17.4405L1.72676 18.6976C1.90742 18.8619 2.13986 18.9578 2.38379 18.9686C2.62771 18.9795 2.86775 18.9046 3.06229 18.7571L23.4493 3.29094C24.1333 2.77214 25.1156 3.25993 25.1156 4.1184V4.05836C25.1156 3.76305 25.0323 3.47375 24.8752 3.22371C24.718 2.97368 24.4935 2.77308 24.2274 2.64497Z" fill="#0065A9"/>
<path d="M24.2274 22.3244L19.056 24.8143C18.7639 24.9549 18.4354 25.0013 18.1158 24.947C17.7962 24.8927 17.5015 24.7404 17.2722 24.5112L0.342704 9.07547C-0.112611 8.66031 -0.11202 7.94338 0.343885 7.52892L1.72676 6.27173C1.90743 6.10748 2.13987 6.01163 2.3838 6.00079C2.62773 5.98995 2.86777 6.0648 3.06229 6.21238L23.4493 21.6784C24.1333 22.1972 25.1156 21.7094 25.1156 20.8509V20.911C25.1156 21.2063 25.0323 21.4956 24.8751 21.7456C24.718 21.9957 24.4935 22.1963 24.2274 22.3244Z" fill="#007ACC"/>
<path d="M19.0398 24.8163C18.7476 24.9569 18.419 25.0031 18.0994 24.9488C17.7799 24.8944 17.485 24.7421 17.2558 24.5129C17.8346 25.0916 18.8245 24.6817 18.8245 23.863V1.10955C18.8245 0.290853 17.8346 -0.119088 17.2558 0.45975C17.485 0.230526 17.7798 0.0781906 18.0994 0.0238119C18.419 -0.0305668 18.7476 0.0156975 19.0398 0.156207L24.2103 2.64272C24.4766 2.77076 24.7012 2.97137 24.8585 3.22147C25.0157 3.47157 25.0991 3.76098 25.0991 4.0564V20.9163C25.0991 21.5192 24.7536 22.0688 24.2103 22.33L19.0398 24.8164V24.8163Z" fill="#1F9CF0"/>
<path d="M17.7996 24.8627C17.9993 24.9405 18.2129 24.9765 18.4271 24.9683C18.6413 24.96 18.8515 24.9078 19.0447 24.8148L24.212 22.3283C24.4782 22.2002 24.7027 21.9996 24.8599 21.7495C25.0171 21.4994 25.1004 21.21 25.1004 20.9147V4.05481C25.1004 3.75945 25.0171 3.47008 24.8599 3.21999C24.7028 2.9699 24.4782 2.76925 24.2121 2.64113L19.0446 0.154515C18.7526 0.0140363 18.4242 -0.0322126 18.1048 0.0221694C17.7854 0.0765513 17.4907 0.228875 17.2617 0.458059L7.36939 9.48326L3.06033 6.21239C2.86596 6.06484 2.62607 5.99 2.38228 6.00084C2.1385 6.01168 1.9062 6.10752 1.72569 6.27174L0.343701 7.52892C-0.112008 7.94339 -0.1125 8.66032 0.34252 9.07548L4.07943 12.4847L0.34252 15.8939C-0.1125 16.3091 -0.112008 17.026 0.343701 17.4405L1.72569 18.6976C1.90619 18.8619 2.13848 18.9577 2.38227 18.9686C2.62605 18.9794 2.86595 18.9046 3.06033 18.7571L7.36939 15.4861L17.2617 24.5112C17.4147 24.6644 17.5979 24.7841 17.7996 24.8627ZM18.8295 6.7869L11.3234 12.4847L18.8295 18.1824V6.787V6.7869Z" fill="url(#paint0_linear_10_23)" fill-opacity="0.25"/>
<defs>
<linearGradient id="paint0_linear_10_23" x1="12.551" y1="0" x2="12.551" y2="24.9694" gradientUnits="userSpaceOnUse">
<stop stop-color="#787878"/>
<stop offset="1" stop-color="white" stop-opacity="0"/>
</linearGradient>
</defs>
</svg>
